<?xml version="1.0" standalone="no"?>
<!DOCTYPE svg PUBLIC "-//W3C//DTD SVG 20010904//EN"
 "http://www.w3.org/TR/2001/REC-SVG-20010904/DTD/svg10.dtd">
<svg version="1.0" xmlns="http://www.w3.org/2000/svg"
 width="260.000000pt" height="260.000000pt" viewBox="0 0 260.000000 260.000000"
 preserveAspectRatio="xMidYMid meet">
<metadata>
Created by potrace 1.11, written by Peter Selinger 2001-2013
</metadata>
<g transform="translate(0.000000,260.000000) scale(0.100000,-0.100000)"
fill="#000000" stroke="none">
<path d="M1118 2234 c-350 -63 -634 -329 -729 -684 -33 -122 -33 -338 0 -460
73 -272 247 -484 496 -606 144 -70 223 -87 400 -87 171 0 244 15 384 79 45 20
83 35 85 33 1 -2 31 -41 65 -86 l62 -83 164 0 c91 0 165 2 165 4 0 2 -56 79
-125 170 l-125 165 56 73 c69 89 136 226 165 338 33 122 33 338 0 460 -125
473 -587 770 -1063 684z m248 -285 c247 -34 437 -193 520 -434 24 -69 28 -96
28 -195 0 -99 -4 -126 -28 -195 -27 -79 -90 -195 -106 -195 -4 0 -40 43 -79
95 l-71 95 -165 0 c-91 0 -165 -1 -165 -3 0 -2 60 -84 134 -183 74 -98 132
-182 128 -186 -4 -4 -43 -19 -87 -34 -68 -23 -97 -27 -190 -27 -94 0 -122 4
-190 27 -202 69 -341 208 -411 411 -24 69 -28 96 -28 195 0 99 4 126 28 195
90 262 303 423 588 444 9 0 51 -4 94 -10z"/>
</g>
</svg>
